Coordinates
version=1
nRows=12
nColumns=24
inDegrees=yes

Units are S.I. units (second, meters, Newtons, ...)
Angles are in degrees.

endheader
time	pelvis_tilt	pelvis_list	pelvis_rotation	pelvis_tx	pelvis_ty	pelvis_tz	hip_flexion_r	hip_adduction_r	hip_rotation_r	knee_angle_r	ankle_angle_r	subtalar_angle_r	mtp_angle_r	hip_flexion_l	hip_adduction_l	hip_rotation_l	knee_angle_l	ankle_angle_l	subtalar_angle_l	mtp_angle_l	lumbar_extension	lumbar_bending	lumbar_rotation
      0.46100000	      3.81815425	      1.10198487	      2.37771829	     -0.75571611	      1.01215239	      0.26082739	     15.91795935	      1.49807405	     -3.67452289	     -2.61814189	      3.06866962	    -16.21705051	      7.38083579	    -19.14406285	      3.73375438	      5.82755677	     -5.40407226	     11.70022153	    -10.87324478	     -0.83364248	     -7.55087311	     -2.65013000	     -3.27605521
      0.46516667	      3.88630140	      1.08659951	      2.42525188	     -0.74973749	      1.01171931	      0.26092578	     15.76651192	      1.59113766	     -3.44848140	     -2.72849464	      3.06026576	    -16.33645927	      7.39711231	    -19.28873670	      3.67702187	      5.76044838	     -5.98811673	     11.81573255	    -10.59886514	     -0.81633421	     -7.56924429	     -2.59812005	     -3.36437709
      0.46933333	      3.93205943	      1.06564429	      2.46266596	     -0.74371971	      1.01128377	      0.26104485	     15.63970903	      1.69300914	     -3.18202105	     -2.90538561	      3.00780173	    -16.49402924	      7.43021514	    -19.37374844	      3.61689329	      5.65137112	     -6.65089795	     11.94074113	    -10.26800055	     -0.77161405	     -7.55180647	     -2.53720223	     -3.41019433
      0.47350000	      3.98836946	      1.03900503	      2.49795921	     -0.73766748	      1.01090040	      0.26116652	     15.49400490	      1.80243384	     -2.89084854	     -3.12758965	      2.91267164	    -16.67728969	      7.47895342	    -19.44486263	      3.54886474	      5.51326658	     -7.36229303	     12.04859367	     -9.90595678	     -0.69790141	     -7.54096726	     -2.46730562	     -3.45659244
      0.47766667	      4.04358795	      1.00956147	      2.51857663	     -0.73159785	      1.01053932	      0.26131573	     15.35616552	      1.91867957	     -2.56715546	     -3.41633134	      2.78319787	    -16.87596987	      7.53420109	    -19.49716915	      3.48192810	      5.38039730	     -8.10923535	     12.13941857	     -9.56049291	     -0.60491687	     -7.54305794	     -2.39739084	     -3.48825468
      0.48183333	      4.09266768	      0.97879062	      2.54818228	     -0.72546932	      1.01022039	      0.26145799	     15.20016523	      2.03521255	     -2.23854537	     -3.70332437	      2.58553632	    -17.12436229	      7.61049127	    -19.49121486	      3.40255438	      5.14614289	     -8.95212179	     12.19767373	     -9.08233795	     -0.46264857	     -7.50029608	     -2.31722197	     -3.51321186
      0.48600000	      4.15828432	      0.94098827	      2.56722368	     -0.71933201	      1.00994623	      0.26162211	     15.03376224	      2.16195006	     -1.89941506	     -4.04431569	      2.35606357	    -17.37053809	      7.70538465	    -19.48500013	      3.31697851	      4.91911798	     -9.83278739	     12.22954484	     -8.61354025	     -0.27295030	     -7.48875489	     -2.23098257	     -3.52256005
      0.49016667	      4.19197250	      0.91411674	      2.57221047	     -0.71319264	      1.00966567	      0.26180592	     14.91899881	      2.27690227	     -1.55787428	     -4.45385469	      2.08884140	    -17.61180894	      7.79257791	    -19.40771644	      3.24803875	      4.68445805	    -10.77803490	     12.23996990	     -8.16723081	     -0.07775391	     -7.45030274	     -2.15862173	     -3.53500300
      0.49433333	      4.27672726	      0.86458273	      2.59854593	     -0.70700175	      1.00948883	      0.26196984	     14.70650183	      2.41372988	     -1.21678119	     -4.80851005	      1.79220636	    -17.89237831	      7.90793113	    -19.33207266	      3.13087516	      4.33806199	    -11.82605141	     12.21767744	     -7.53774306	      0.20899355	     -7.44221785	     -2.05226825	     -3.52573683
      0.49850000	      4.28884559	      0.83016857	      2.61456162	     -0.70080779	      1.00925276	      0.26215566	     14.59733986	      2.53085482	     -0.88913928	     -5.23833760	      1.47915823	    -18.15332217	      8.02668668	    -19.14281414	      3.03644883	      4.02283049	    -12.93948443	     12.15218049	     -6.97869602	      0.53881271	     -7.35429684	     -1.97062731	     -3.51367860
      0.50266667	      4.36945235	      0.78123194	      2.62063939	     -0.69462897	      1.00912717	      0.26236936	     14.41291308	      2.66714630	     -0.57168831	     -5.68023169	      1.14645055	    -18.40270626	      8.14960349	    -18.98974377	      2.91437833	      3.63877087	    -14.11302755	     12.04927389	     -6.33582869	      0.92600753	     -7.36037926	     -1.87135447	     -3.49133390
      0.50683333	      4.39862662	      0.73888965	      2.63513907	     -0.68844011	      1.00897227	      0.26256928	     14.28977737	      2.78794775	     -0.28864767	     -6.15210467	      0.80697597	    -18.64631753	      8.26897841	    -18.72825424	      2.79310314	      3.24680928	    -15.38530605	     11.89963534	     -5.69924020	      1.35713369	     -7.28947200	     -1.77693607	     -3.46849560
